# xmcd CD database file generated by Grip 3.2.0
# 
# Track frame offsets:
#       150
#       23485
#       48195
#       70130
#       94132
#       124595
#       147972
#       172245
#       198667
#       222705
# 
# Disc length: 3298 seconds
# 
# Revision: 4
# Processed by: cddbd v1.5.2PL0 Copyright (c) Steve Scherf et al.
# Submitted via: Grip 3.2.0
# 
DISCID=950ce00a
DTITLE=Robbie Robertson - Storyville
DYEAR=1900
DGENRE=Country
TTITLE0=Night Parade
TTITLE1=Hold Back the Dawn
TTITLE2=Go Back to Your Woods
TTITLE3=Soap Box Preacher
TTITLE4=Day of Reckoning (Burnin for You)
TTITLE5=What About Now
TTITLE6=Shake This Town
TTITLE7=Breakin the Rules
TTITLE8=Ressurection
TTITLE9=Sign of the Rainbow
EXTD=
EXTT0=
EXTT1=
EXTT2=
EXTT3=
EXTT4=
EXTT5=
EXTT6=
EXTT7=
EXTT8=
EXTT9=
PLAYORDER=
